<svg width="168" height="24" viewBox="0 0 168 24" fill="none" xmlns="http://www.w3.org/2000/svg">
<g clip-path="url(#clip0_7155_6775)">
<path d="M24 12C24 5.37258 18.6274 0 12 0C5.37258 0 0 5.37258 0 12C0 17.9895 4.3882 22.954 10.125 23.8542V15.4688H7.07812V12H10.125V9.35625C10.125 6.34875 11.9166 4.6875 14.6576 4.6875C15.9701 4.6875 17.3438 4.92188 17.3438 4.92188V7.875H15.8306C14.34 7.875 13.875 8.80008 13.875 9.75V12H17.2031L16.6711 15.4688H13.875V23.8542C19.6118 22.954 24 17.9895 24 12Z" fill="#272D37"/>
<path d="M16.6711 15.4688L17.2031 12H13.875V9.75C13.875 8.80102 14.34 7.875 15.8306 7.875H17.3438V4.92188C17.3438 4.92188 15.9705 4.6875 14.6576 4.6875C11.9166 4.6875 10.125 6.34875 10.125 9.35625V12H7.07812V15.4688H10.125V23.8542C11.3674 24.0486 12.6326 24.0486 13.875 23.8542V15.4688H16.6711Z" fill="white"/>
</g>
<g clip-path="url(#clip1_7155_6775)">
<path d="M71.7628 12.2758C71.7628 11.46 71.6967 10.6399 71.5556 9.8374H60.2368V14.4584H66.7185C66.4496 15.9487 65.5853 17.2671 64.3199 18.1049V21.1032H68.1869C70.4577 19.0132 71.7628 15.9267 71.7628 12.2758Z" fill="#272D37"/>
<path d="M60.2372 24.0001C63.4736 24.0001 66.203 22.9374 68.1916 21.1032L64.3246 18.1048C63.2487 18.8368 61.8598 19.2512 60.2416 19.2512C57.111 19.2512 54.4565 17.1392 53.5041 14.2996H49.5137V17.3905C51.5508 21.4427 55.7 24.0001 60.2372 24.0001Z" fill="#272D37"/>
<path d="M53.4998 14.3C52.9972 12.8096 52.9972 11.1958 53.4998 9.70544V6.6145H49.5138C47.8118 10.0053 47.8118 14.0001 49.5138 17.3909L53.4998 14.3Z" fill="#272D37"/>
<path d="M60.2372 4.74942C61.948 4.72296 63.6015 5.36672 64.8405 6.54842L68.2666 3.12237C66.0972 1.08526 63.2179 -0.0347101 60.2372 0.000564525C55.7 0.000564525 51.5508 2.55798 49.5137 6.61456L53.4997 9.70551C54.4477 6.86149 57.1065 4.74942 60.2372 4.74942Z" fill="#272D37"/>
</g>
<path d="M117.684 18.7033C117.321 19.5418 116.891 20.3136 116.394 21.0232C115.715 21.9906 115.16 22.6602 114.732 23.032C114.068 23.6424 113.357 23.955 112.595 23.9728C112.049 23.9728 111.389 23.8172 110.622 23.5017C109.852 23.1876 109.145 23.032 108.498 23.032C107.819 23.032 107.091 23.1876 106.313 23.5017C105.534 23.8172 104.906 23.9816 104.426 23.9979C103.695 24.0291 102.967 23.7076 102.241 23.032C101.777 22.6276 101.197 21.9343 100.503 20.9521C99.7571 19.9033 99.1442 18.687 98.6641 17.3004C98.1499 15.8026 97.8921 14.3523 97.8921 12.9482C97.8921 11.3398 98.2396 9.95259 98.9358 8.79011C99.4829 7.85636 100.211 7.11979 101.122 6.57906C102.033 6.03834 103.017 5.76279 104.077 5.74516C104.657 5.74516 105.417 5.92456 106.362 6.27715C107.305 6.63091 107.91 6.81032 108.175 6.81032C108.374 6.81032 109.046 6.60054 110.186 6.18233C111.264 5.79449 112.173 5.63391 112.918 5.69716C114.937 5.86012 116.454 6.6561 117.463 8.09013C115.657 9.18432 114.764 10.7169 114.782 12.6829C114.798 14.2142 115.354 15.4886 116.446 16.5004C116.94 16.97 117.493 17.333 118.108 17.5907C117.974 17.9774 117.834 18.3477 117.684 18.7033ZM113.053 0.480137C113.053 1.68041 112.615 2.8011 111.741 3.8384C110.686 5.07155 109.41 5.78412 108.026 5.67168C108.009 5.52769 107.999 5.37614 107.999 5.21688C107.999 4.06462 108.5 2.83147 109.391 1.82321C109.836 1.3127 110.401 0.888228 111.087 0.549615C111.772 0.216055 112.419 0.031589 113.028 0C113.046 0.160458 113.053 0.320926 113.053 0.480121V0.480137Z" fill="#272D37"/>
<g clip-path="url(#clip2_7155_6775)">
<path d="M160.85 0H151.15C147.207 0 144 3.20735 144 7.14973V16.8503C144 20.7926 147.207 24 151.15 24H160.85C164.793 24 168 20.7926 168 16.8503V7.14973C168 3.20735 164.793 0 160.85 0ZM165.586 16.8503C165.586 19.4655 163.465 21.5856 160.85 21.5856H151.15C148.535 21.5856 146.414 19.4655 146.414 16.8503V7.14973C146.414 4.53446 148.535 2.4144 151.15 2.4144H160.85C163.465 2.4144 165.586 4.53446 165.586 7.14973V16.8503Z" fill="#272D37"/>
<path d="M156 5.79272C152.578 5.79272 149.793 8.57729 149.793 11.9999C149.793 15.4226 152.578 18.2072 156 18.2072C159.423 18.2072 162.207 15.4226 162.207 11.9999C162.207 8.57725 159.423 5.79272 156 5.79272ZM156 15.7928C153.905 15.7928 152.207 14.0947 152.207 12C152.207 9.90523 153.906 8.20712 156 8.20712C158.095 8.20712 159.793 9.90523 159.793 12C159.793 14.0947 158.095 15.7928 156 15.7928Z" fill="#272D37"/>
<path d="M162.219 7.32673C163.04 7.32673 163.706 6.66083 163.706 5.83939C163.706 5.01796 163.04 4.35205 162.219 4.35205C161.397 4.35205 160.731 5.01796 160.731 5.83939C160.731 6.66083 161.397 7.32673 162.219 7.32673Z" fill="#272D37"/>
</g>
<defs>
<clipPath id="clip0_7155_6775">
<rect width="24" height="24" fill="white"/>
</clipPath>
<clipPath id="clip1_7155_6775">
<rect width="24" height="24" fill="white" transform="translate(48)"/>
</clipPath>
<clipPath id="clip2_7155_6775">
<rect width="24" height="24" fill="white" transform="translate(144)"/>
</clipPath>
</defs>
</svg>
